<svg width="25" height="25" viewBox="0 0 25 25" fill="none" xmlns="http://www.w3.org/2000/svg">
<path d="M12.3654 0.776611C11.4161 0.777195 10.4695 0.876495 9.54074 1.07291C4.03753 2.02501 0.0869136 6.71834 0 12.747C0 12.822 0 12.8971 0 12.9722C0 13.1341 0 13.2961 0 13.4541C0 13.4976 0 13.5411 0 13.5845C0 13.628 0 13.6635 0 13.703C0.0399603 14.3668 0.127094 15.0269 0.260741 15.6783C4.09284 14.8527 8.69136 12.8023 10.5323 11.5618L11.4568 10.9574C11.599 10.8704 11.9388 10.6413 12.2114 10.4596C12.484 10.2778 12.7249 10.1159 12.7447 10.1119C12.7644 10.108 12.9146 10.0092 13.0923 9.89464L13.6415 9.52723C13.7679 9.44427 14.0602 9.25464 14.2933 9.09661C14.7798 8.75941 15.3119 8.49336 15.8736 8.30649C16.8968 8.00229 17.9437 8.0813 18.5402 8.50402C18.9353 8.80822 18.959 8.84772 18.6548 9.24674C18.2615 9.70779 17.8145 10.1203 17.3235 10.4754C17.1733 10.5939 16.3595 11.1825 15.5259 11.783L14.0089 12.8695L13.7363 13.8453C13.5822 14.3746 13.3886 15.066 13.2978 15.3781C13.2069 15.6902 13.116 16.0536 13.0765 16.1959C12.9896 16.5317 12.5393 18.1435 12.2548 19.1035C12.1359 19.6458 11.9073 20.158 11.5832 20.6087C11.343 20.8576 11.052 21.0516 10.7299 21.1776C10.6035 21.1776 10.5877 21.1539 10.5521 20.8734C10.5165 20.5929 10.5521 19.8107 10.5798 18.424C10.5798 18.1751 10.6035 17.6616 10.6074 17.2704C10.6114 16.8793 10.6311 16.2512 10.643 15.864C10.666 15.6249 10.666 15.3841 10.643 15.145C10.4535 15.2219 10.2754 15.3242 10.1136 15.4492C9.94564 15.5725 9.77159 15.6872 9.5921 15.7929C9.5921 15.7929 5.26617 18.1198 3.39753 21.6122C4.46948 22.6994 5.7497 23.5592 7.16161 24.1403C8.57352 24.7213 10.0881 25.0117 11.6148 24.9939C13.3232 24.9999 15.0078 24.5933 16.5254 23.8087V24.9939H24.4188V14.829C24.4464 14.4339 24.4622 14.0388 24.4622 13.6438C24.4622 12.107 24.4622 9.9855 23.9921 8.65414C22.3012 3.96476 17.8607 0.776611 12.3654 0.776611ZM8.51753 12.0161L7.33235 12.8062L6.86222 12.6245C6.60938 12.5218 6.32494 12.4112 6.23802 12.3717L5.29778 11.9766C4.41679 11.625 4.1758 11.4828 4.20346 11.3524C4.42733 11.0998 4.70559 10.9012 5.01728 10.7717C5.52761 10.6544 6.05493 10.6303 6.57383 10.7006C6.83457 10.7322 7.44691 10.823 7.92099 10.8902L9.15358 11.068C9.30984 11.0973 9.4687 11.1105 9.62766 11.1075C9.87654 11.0798 9.6079 11.305 8.51753 12.0161Z" fill="#CB5017"/>
</svg>
